HIERARCHY
ROOT RootJoint
{
    OFFSET   0.000000   0.000000   0.000000
    CHANNELS 6 Xposition Yposition Zposition Xrotation Yrotation Zrotation
    JOINT pelvis_lowerback
    {
        OFFSET   0.000000   0.093605   0.000000
        CHANNELS 3 Xrotation Yrotation Zrotation
        JOINT lowerback_torso
        {
            OFFSET   0.000000   0.100000   0.000000
            CHANNELS 3 Xrotation Yrotation Zrotation
            JOINT torso_head
            {
                OFFSET   0.000000   0.282350   0.000000
                CHANNELS 3 Xrotation Yrotation Zrotation
                End Site
                {
                    OFFSET   0.000000   0.192650   0.000000
                }
            }
            JOINT rTorso_Clavicle
            {
                OFFSET  -0.001000   0.157500   0.000000
                CHANNELS 3 Xrotation Yrotation Zrotation
                JOINT rShoulder
                {
                    OFFSET  -0.117647   0.000000   0.000000
                    CHANNELS 3 Xrotation Yrotation Zrotation
                    JOINT rElbow
                    {
                        OFFSET  -0.245000   0.000000   0.000000
                        CHANNELS 3 Xrotation Yrotation Zrotation
                        JOINT rWrist
                        {
                            OFFSET  -0.240000   0.000000   0.000000
                            CHANNELS 3 Xrotation Yrotation Zrotation
                            End Site
                            {
                                OFFSET  -0.116353  -0.002500   0.000000
                            }
                        }
                    }
                }
            }
            JOINT lTorso_Clavicle
            {
                OFFSET   0.001000   0.157500   0.000000
                CHANNELS 3 Xrotation Yrotation Zrotation
                JOINT lShoulder
                {
                    OFFSET   0.117647   0.000000   0.000000
                    CHANNELS 3 Xrotation Yrotation Zrotation
                    JOINT lElbow
                    {
                        OFFSET   0.245000   0.000000   0.000000
                        CHANNELS 3 Xrotation Yrotation Zrotation
                        JOINT lWrist
                        {
                            OFFSET   0.240000   0.000000   0.000000
                            CHANNELS 3 Xrotation Yrotation Zrotation
                            End Site
                            {
                                OFFSET   0.116353  -0.002500   0.000000
                            }
                        }
                    }
                }
            }
        }
    }
    JOINT rHip
    {
        OFFSET  -0.100000  -0.051395   0.000000
        CHANNELS 3 Xrotation Yrotation Zrotation
        JOINT rKnee
        {
            OFFSET   0.000000  -0.410000   0.000000
            CHANNELS 3 Xrotation Yrotation Zrotation
            JOINT rAnkle
            {
                OFFSET   0.000000  -0.390000   0.000000
                CHANNELS 3 Xrotation Yrotation Zrotation
                JOINT rToeJoint
                {
                    OFFSET   0.000000  -0.050000   0.130000
                    CHANNELS 3 Xrotation Yrotation Zrotation
                    End Site
                    {
                        OFFSET  -0.010000   0.002000   0.060000
                    }
                }
            }
        }
    }
    JOINT lHip
    {
        OFFSET   0.100000  -0.051395   0.000000
        CHANNELS 3 Xrotation Yrotation Zrotation
        JOINT lKnee
        {
            OFFSET   0.000000  -0.410000   0.000000
            CHANNELS 3 Xrotation Yrotation Zrotation
            JOINT lAnkle
            {
                OFFSET   0.000000  -0.390000   0.000000
                CHANNELS 3 Xrotation Yrotation Zrotation
                JOINT lToeJoint
                {
                    OFFSET   0.000000  -0.050000   0.130000
                    CHANNELS 3 Xrotation Yrotation Zrotation
                    End Site
                    {
                        OFFSET   0.010000   0.002000   0.060000
                    }
                }
            }
        }
    }
}
MOTION
Frames: 11
Frame Time:   0.008333
 -2.402875   0.819987   3.966438  17.621694   1.635050  -2.124133  22.532566  -0.187823   0.454605  -4.375558  -0.970545   3.403874 -12.541570   1.032619   0.487226   4.215216 -13.163069   3.928150  12.799416  -2.298625  46.638434   0.000189  10.297324  -0.001611   1.795174   3.565040  -4.809735   4.161514   8.571598  -0.222744  10.752911   0.045565 -44.980223   0.000187 -18.874619  -0.001536   0.403652  -4.643873   4.390468 -45.737451  -2.724457   1.325062  57.300976  -0.008063   0.002047 -28.766606  -5.900875  -1.522161  -0.359913   0.000065  -0.000221 -43.373543  -2.877491   3.915730  59.603849   0.005888   0.017933 -32.656693  -0.182552   5.013943  -2.102086   0.000580  -0.002429
 -2.403615   0.812612   3.964538  18.074057   1.673975  -2.102388  23.172682  -0.176546   0.516606  -4.535270  -0.990058   3.442079 -13.105010   1.118718   0.409907   4.283374 -12.873517   4.237163  12.781397  -2.567869  46.568534   0.000277  10.398648  -0.001892   1.794673   3.455348  -4.903706   4.130174   8.405072  -0.437922  10.829650   0.308423 -44.883035   0.000079 -18.740693  -0.001976   0.306786  -4.608264   4.502908 -47.416927  -2.843760   1.246831  59.467514  -0.008096   0.001882 -29.786801  -5.854396  -1.697478  -0.267355   0.000124  -0.000178 -45.120398  -2.751320   3.921615  61.999273   0.008255   0.018876 -33.599826  -0.239330   5.049739  -1.838429   0.000328  -0.001504
 -2.404276   0.804978   3.962782  18.489842   1.703809  -2.087806  23.837447  -0.150995   0.585613  -4.693039  -0.999461   3.479875 -13.647137   1.201140   0.337582   4.315404 -12.559632   4.556460  12.738224  -2.793713  46.512058   0.000382  10.501168  -0.002140   1.794180   3.355583  -4.996515   4.083695   8.215035  -0.684836  10.884930   0.534257 -44.815753  -0.000065 -18.617209  -0.002278   0.212122  -4.548230   4.593601 -49.049302  -2.956267   1.174239  61.622592  -0.008040   0.001748 -30.755295  -5.808744  -1.858887  -0.278696   0.000091  -0.000142 -46.804564  -2.616496   3.912252  64.334768   0.010642   0.018754 -34.480671  -0.293339   5.082239  -1.616611   0.000232  -0.000853
 -2.404893   0.797179   3.961233  18.872707   1.720814  -2.094334  24.499607  -0.111980   0.662867  -4.835131  -0.996191   3.522216 -14.150785   1.278934   0.272771   4.317874 -12.236369   4.875356  12.675615  -2.981950  46.470479   0.000495  10.606836  -0.002352   1.797778   3.300558  -5.068578   4.026196   8.016952  -0.947626  10.923450   0.728510 -44.773482  -0.000207 -18.507874  -0.002434   0.123218  -4.508877   4.648098 -50.616513  -3.071785   1.123469  63.738013  -0.007932   0.001670 -31.685644  -5.763967  -2.004492  -0.436031  -0.000029  -0.000115 -48.393568  -2.487458   3.904023  66.530049   0.012598   0.017673 -35.302762  -0.344551   5.111908  -1.416596   0.000220  -0.000391
 -2.405475   0.789304   3.959897  19.232265   1.718719  -2.125644  25.148572  -0.060067   0.745285  -4.964633  -0.980454   3.568737 -14.618161   1.352304   0.214771   4.296793 -11.910035   5.189375  12.598508  -3.138678  46.440791   0.000604  10.714359  -0.002517   1.805451   3.291157  -5.120142   3.961753   7.817794  -1.217086  10.949854   0.897597 -44.749724  -0.000330 -18.410718  -0.002485   0.039968  -4.493970   4.672495 -52.116230  -3.193901   1.100068  65.799401  -0.007806   0.001584 -32.622604  -5.718221  -2.127130  -0.466440  -0.000036  -0.000092 -49.887874  -2.366907   3.901622  68.573919   0.014030   0.015875 -36.070111  -0.392960   5.139105  -1.233196   0.000259  -0.000076
 -2.406024   0.781411   3.958779  19.572558   1.698277  -2.179235  25.779083   0.000933   0.828814  -5.082819  -0.955136   3.617660 -15.052194   1.421348   0.162562   4.257727 -11.585777   5.495374  12.511384  -3.269509  46.420423   0.000699  10.822121  -0.002625   1.816511   3.320091  -5.154515   3.893209   7.621368  -1.486058  10.967361   1.046306 -44.738913  -0.000427 -18.323777  -0.002462  -0.038216  -4.498506   4.674511 -53.548471  -3.324069   1.101488  67.795624  -0.007672   0.001483 -33.538622  -5.669981  -2.232587  -0.492185  -0.000037  -0.000074 -51.289360  -2.254040   3.901001  70.473086   0.014987   0.013624 -36.786408  -0.438686   5.164059  -1.064519   0.000331   0.000129
 -2.406601   0.773679   3.957844  19.911282   1.698248  -2.217172  26.392658   0.048178   0.884943  -5.197179  -0.938195   3.661794 -15.458028   1.485517   0.114829   4.204490 -11.268980   5.805583  12.417595  -3.378390  46.416085   0.000779  10.928706  -0.002688   1.829782   3.378663  -5.168563   3.816934   7.420959  -1.747730  10.972838   1.173760 -44.731501  -0.000502 -18.246875  -0.002386  -0.111660  -4.521241   4.668994 -54.923413  -3.447875   1.081298  69.707799  -0.007450   0.001532 -34.425101  -5.629675  -2.327379  -0.513973  -0.000034  -0.000059 -52.600531  -2.185259   3.949754  72.350001   0.014558   0.012524 -37.573085  -0.389554   5.204391  -1.976551   0.000398  -0.001624
 -2.407027   0.765912   3.957029  20.158176   1.761431  -2.188204  27.080026   0.067911   0.917736  -5.285246  -0.968139   3.694497 -15.924669   1.537308   0.040788   4.200691 -10.702749   6.278546  12.146103  -3.547698  46.259417   0.000858  11.056697  -0.002962   1.779720   3.158228  -5.157156   3.759803   6.980300  -2.166569  10.941720   1.289515 -44.643373  -0.000659 -18.156231  -0.002557  -0.231417  -4.341689   4.736031 -56.192626  -3.564156   0.962992  71.630457  -0.007425   0.001371 -35.366286  -5.573900  -2.564292  -0.496179  -0.000002  -0.000047 -53.877365  -2.108716   3.933721  74.317469   0.014201   0.012022 -38.173465  -0.280787   5.259407  -2.845367   0.000747  -0.003299
 -2.407352   0.758160   3.956396  20.381941   1.824964  -2.142404  27.762383   0.092216   0.947722  -5.384565  -0.995542   3.712643 -16.361621   1.585499  -0.029406   4.131616 -10.095007   6.731075  11.839410  -3.654196  46.102712   0.000946  11.196640  -0.003260   1.736247   2.979743  -5.160385   3.656153   6.491901  -2.602227  10.868194   1.347046 -44.579625  -0.000748 -18.088617  -0.002518  -0.339612  -4.193450   4.771415 -57.405916  -3.652577   0.830514  73.514560  -0.007209   0.001242 -36.300575  -5.523288  -2.784877  -0.475776   0.000026  -0.000038 -55.103150  -2.028747   3.909872  76.250676   0.013707   0.011446 -38.736827  -0.211905   5.297719  -3.672747   0.000940  -0.004141
 -2.407614   0.750486   3.955980  20.599676   1.881641  -2.095382  28.418162   0.122112   0.976341  -5.498538  -1.015270   3.722727 -16.767706   1.631105  -0.093366   4.017341  -9.476389   7.159171  11.514232  -3.715046  45.953446   0.001038  11.346120  -0.003530   1.703040   2.894507  -5.168717   3.521123   5.989190  -3.039065  10.767335   1.364683 -44.536194  -0.000763 -18.042117  -0.002323  -0.436365  -4.126214   4.773901 -58.567340  -3.727079   0.700172  75.339501  -0.006915   0.001111 -37.218772  -5.473956  -2.986582  -0.455058   0.000047  -0.000030 -56.262164  -1.953408   3.890493  78.103764   0.013029   0.010736 -39.279031  -0.156417   5.328023  -4.601591   0.001114  -0.004758
 -2.407838   0.742944   3.955788  20.817517   1.933251  -2.052526  29.040586   0.155391   1.002890  -5.624705  -1.028592   3.727967 -17.146280   1.674198  -0.151677   3.872645  -8.862048   7.564849  11.181926  -3.742749  45.813541   0.001122  11.500250  -0.003736   1.678435   2.889853  -5.177418   3.366385   5.487564  -3.468638  10.650061   1.355253 -44.507189  -0.000724 -18.011202  -0.002053  -0.523412  -4.127881   4.752250 -59.676391  -3.794856   0.575513  77.095296  -0.006584   0.000989 -38.117217  -5.425768  -3.170065  -0.435023   0.000060  -0.000024 -57.351244  -1.884965   3.878184  79.862302   0.012233   0.009970 -39.804506  -0.106646   5.352957  -5.662545   0.001302  -0.005291
